HIERARCHY
ROOT joint_0
{
	OFFSET 0.000000 0.000000 0.000000
	CHANNELS 6 Xposition Yposition Zposition Zrotation Yrotation Xrotation 
	JOINT joint_1
	{
		OFFSET 7.683380 1.521202 101.454956
		CHANNELS 3 Zrotation Yrotation Xrotation
		JOINT joint_2
		{
			OFFSET -4.816528 0.859650 92.807007
			CHANNELS 3 Zrotation Yrotation Xrotation
			JOINT joint_3
			{
				OFFSET -7.237778 1.114670 92.543091
				CHANNELS 3 Zrotation Yrotation Xrotation
				JOINT joint_4
				{
					OFFSET 0.479660 2.971886 127.844971
					CHANNELS 3 Zrotation Yrotation Xrotation
					JOINT joint_5
					{
						OFFSET 15.211349 9.937172 76.390015
						CHANNELS 3 Zrotation Yrotation Xrotation
						End Site
						{
							OFFSET 0.000000 0.000000 0.000000
						}
					}
				}
				JOINT joint_6
				{
					OFFSET 2.887054 -26.053230 72.331909
					CHANNELS 3 Zrotation Yrotation Xrotation
					JOINT joint_7
					{
						OFFSET 10.229767 -132.540291 -13.979004
						CHANNELS 3 Zrotation Yrotation Xrotation
						JOINT joint_8
						{
							OFFSET 17.695633 -10.988861 -262.204956
							CHANNELS 3 Zrotation Yrotation Xrotation
							JOINT joint_9
							{
								OFFSET 11.003433 -0.031860 -255.909973
								CHANNELS 3 Zrotation Yrotation Xrotation
								End Site
								{
									OFFSET 0.000000 0.000000 0.000000
								}
							}
						}
					}
				}
				JOINT joint_10
				{
					OFFSET -2.092239 29.348854 71.062988
					CHANNELS 3 Zrotation Yrotation Xrotation
					JOINT joint_11
					{
						OFFSET -11.853149 131.935837 -17.877075
						CHANNELS 3 Zrotation Yrotation Xrotation
						JOINT joint_12
						{
							OFFSET 14.084503 10.700203 -262.437012
							CHANNELS 3 Zrotation Yrotation Xrotation
							JOINT joint_13
							{
								OFFSET 48.202347 13.087273 -251.229919
								CHANNELS 3 Zrotation Yrotation Xrotation
								End Site
								{
									OFFSET 0.000000 0.000000 0.000000
								}
							}
						}
					}
				}
			}
		}
	}
	JOINT joint_14
	{
		OFFSET 4.150818 -83.296913 -102.580017
		CHANNELS 3 Zrotation Yrotation Xrotation
		JOINT joint_15
		{
			OFFSET -36.423187 -7.342392 -449.858948
			CHANNELS 3 Zrotation Yrotation Xrotation
			JOINT joint_16
			{
				OFFSET -41.100235 -7.280350 -426.202026
				CHANNELS 3 Zrotation Yrotation Xrotation
				JOINT joint_17
				{
					OFFSET 175.972961 13.159744 -75.358000
					CHANNELS 3 Zrotation Yrotation Xrotation
					End Site
					{
						OFFSET 0.000000 0.000000 0.000000
					}
				}
			}
		}
	}
	JOINT joint_18
	{
		OFFSET -9.062592 83.477568 -102.093018
		CHANNELS 3 Zrotation Yrotation Xrotation
		JOINT joint_19
		{
			OFFSET -39.145699 -6.092751 -449.645996
			CHANNELS 3 Zrotation Yrotation Xrotation
			JOINT joint_20
			{
				OFFSET -32.926178 -7.016375 -426.911980
				CHANNELS 3 Zrotation Yrotation Xrotation
				JOINT joint_21
				{
					OFFSET 176.289299 16.780729 -73.883997
					CHANNELS 3 Zrotation Yrotation Xrotation
					End Site
					{
						OFFSET 0.000000 0.000000 0.000000
					}
				}
			}
		}
	}
}
MOTION
Frames: 15
Frame Time: 0.016667
-568.741577 -65.973549 1075.483032 -4.220034 0.396930 -0.183106 -0.595779 3.715810 2.129172 -0.723329 -0.813990 -0.510734 -0.677043 0.911125 0.345870 -0.362873 -0.777044 2.350669 0.000000 0.000000 0.000000 1.815527 -1.198113 3.670574 -0.377496 -1.668221 -5.463749 0.079248 -1.437161 1.505515 0.000000 0.000000 0.000000 -1.604918 -0.854104 -3.085082 -0.337365 -0.191594 2.225835 -0.487234 5.506226 -4.925267 0.000000 0.000000 0.000000 -0.436531 -1.955540 0.352176 -0.471228 -0.766086 0.484126 -0.437895 1.743681 -0.317897 0.000000 0.000000 0.000000 2.686487 -2.394265 1.224083 2.712217 2.095470 0.158217 2.676013 -0.175192 1.136464 0.000000 0.000000 0.000000 
-564.491333 -66.492928 1075.297974 -4.190970 1.475169 -0.209030 -0.586605 3.453331 2.109950 -0.717585 -0.812146 -0.449253 -0.678920 0.894748 0.306019 -0.150412 -2.028490 2.140088 0.000000 0.000000 0.000000 2.913822 -0.200782 3.055711 -0.476305 -0.430397 -4.601207 0.125454 -4.424420 1.869092 0.000000 0.000000 0.000000 -2.259386 -0.061994 -2.309378 -0.426330 0.502204 1.099072 -0.611875 3.734855 -4.843348 0.000000 0.000000 0.000000 -0.448830 -2.725581 0.249828 -0.523282 -1.139069 0.773937 -0.471990 2.088784 -0.358350 0.000000 0.000000 0.000000 2.728567 -3.129273 1.409092 2.788790 1.663647 -0.101085 2.719653 0.271779 1.112331 0.000000 0.000000 0.000000 
-559.640808 -67.061699 1075.425049 -4.236174 2.628893 -0.267821 -0.618598 3.023451 2.105713 -0.753605 -0.758357 -0.409648 -0.718443 0.809611 0.276229 0.036179 -3.120389 1.997494 0.000000 0.000000 0.000000 4.011798 0.863906 2.318160 -0.574824 0.898099 -3.475806 0.189536 -8.810582 2.082863 0.000000 0.000000 0.000000 -2.813411 0.876465 -1.351315 -0.508890 1.278397 -0.379770 -0.728556 1.609490 -4.634652 0.000000 0.000000 0.000000 -0.454236 -3.924071 0.208429 -0.583380 -0.782050 1.026930 -0.500286 2.165700 -0.376234 0.000000 0.000000 0.000000 2.799116 -4.200286 1.664246 2.894631 1.809317 -0.445413 2.796840 0.522520 1.120671 0.000000 0.000000 0.000000 
-554.385132 -67.774223 1076.229004 -4.411342 3.841930 -0.377280 -0.734627 2.246870 2.062421 -0.869904 -0.621467 -0.391402 -0.832681 0.632300 0.269249 0.120654 -3.702526 2.034109 0.000000 0.000000 0.000000 4.838628 1.922741 1.503234 -0.649462 2.202539 -2.151193 0.327973 -15.431713 2.357294 0.000000 0.000000 0.000000 -2.886310 1.959137 -0.076287 -0.585972 2.054655 -2.460039 -0.821823 -0.944264 -4.255372 0.000000 0.000000 0.000000 -0.469708 -5.826781 0.338338 -0.670360 0.857416 1.101292 -0.544990 1.761741 -0.365056 0.000000 0.000000 0.000000 2.911549 -5.844020 2.004372 3.036788 3.025173 -0.911990 2.923680 0.373049 1.187324 0.000000 0.000000 0.000000 
-548.506470 -68.645973 1077.560059 -4.687906 5.157745 -0.511477 -0.923724 1.185557 1.934749 -1.053178 -0.441552 -0.352218 -1.013340 0.387154 0.278605 0.137783 -3.955134 2.181547 0.000000 0.000000 0.000000 5.608944 3.088006 0.936489 -0.624305 3.548632 -0.964855 0.583145 -24.020548 2.667822 0.000000 0.000000 0.000000 -2.662770 3.227210 1.458738 -0.639736 2.923790 -5.079965 -0.882224 -3.992556 -3.731392 0.000000 0.000000 0.000000 -0.487639 -8.296804 0.588328 -0.783938 3.433257 1.031742 -0.627318 1.133833 -0.352968 0.000000 0.000000 0.000000 3.055437 -7.957523 2.407050 3.207760 5.028678 -1.493375 3.091253 0.039843 1.287214 0.000000 0.000000 0.000000 
-542.808350 -69.141571 1078.963013 -5.020182 6.251219 -0.687878 -1.095970 0.320770 2.031057 -1.233359 -0.262944 -0.409678 -1.178942 0.151858 0.335166 0.118489 -4.087369 2.422509 0.000000 0.000000 0.000000 6.072186 3.968673 0.394414 -0.430846 4.501788 -0.180572 0.915743 -32.653310 2.522913 0.000000 0.000000 0.000000 -2.309363 4.265747 2.760395 -0.664525 3.631992 -7.233495 -0.922742 -6.686626 -3.372486 0.000000 0.000000 0.000000 -0.400713 -11.052502 0.798885 -0.838504 6.986872 0.995252 -0.675781 0.350065 -0.314014 0.000000 0.000000 0.000000 3.160222 -10.184374 2.823923 3.323318 7.701959 -1.964311 3.237108 -0.443833 1.390125 0.000000 0.000000 0.000000 
-538.454407 -68.705536 1080.094971 -5.386323 6.946124 -0.860414 -1.193927 -0.098256 2.500824 -1.353674 -0.050083 -0.608580 -1.264183 -0.027389 0.466447 0.074516 -4.215757 2.772673 0.000000 0.000000 0.000000 5.973471 4.309055 -0.496326 -0.087321 4.811249 0.196271 1.300971 -40.781956 1.412511 0.000000 0.000000 0.000000 -1.925224 4.768536 3.617338 -0.683753 3.940709 -8.268699 -0.992217 -8.573803 -3.460713 0.000000 0.000000 0.000000 -0.111404 -14.189914 0.811935 -0.753742 11.928460 1.119735 -0.637274 -0.434647 -0.236464 0.000000 0.000000 0.000000 3.177818 -12.605192 3.152022 3.316288 11.426970 -2.148825 3.321620 -1.123634 1.481926 0.000000 0.000000 0.000000 
-535.143250 -67.537849 1081.125000 -5.749747 7.277340 -0.945045 -1.265151 -0.059548 3.079265 -1.444918 0.106642 -0.823982 -1.311163 -0.165271 0.657969 -0.003076 -4.269320 3.217564 0.000000 0.000000 0.000000 5.394451 4.159040 -1.393139 0.362487 4.499755 0.026981 1.766459 -48.933206 -0.557809 0.000000 0.000000 0.000000 -1.495399 4.898834 4.233111 -0.704543 3.948114 -8.569627 -1.089693 -10.005047 -3.871605 0.000000 0.000000 0.000000 0.342280 -17.670288 0.582813 -0.537884 18.091859 1.410965 -0.550713 -0.749513 -0.172361 0.000000 0.000000 0.000000 3.117345 -15.235884 3.339420 3.211230 16.169965 -2.139527 3.359036 -1.677315 1.535020 0.000000 0.000000 0.000000 
-530.049744 -66.557526 1082.272949 -6.111227 7.207501 -1.003488 -1.308223 0.448884 3.579649 -1.518900 0.061566 -0.973204 -1.353920 -0.208883 0.814158 -0.077914 -4.317062 3.634448 0.000000 0.000000 0.000000 4.827196 3.641722 -1.908701 0.703791 3.743657 -0.760159 2.189588 -55.749315 -2.498616 0.000000 0.000000 0.000000 -1.274481 4.896467 4.612859 -0.700694 3.895525 -8.535373 -1.129261 -10.628040 -4.052370 0.000000 0.000000 0.000000 0.861208 -20.530031 0.046404 -0.179972 23.972417 2.071311 -0.314881 -0.580010 -0.084306 0.000000 0.000000 0.000000 2.990413 -16.844200 3.524847 3.129791 19.954996 -2.142513 3.388742 -1.702221 1.531929 0.000000 0.000000 0.000000 
-520.841187 -66.298195 1083.798950 -6.523060 6.800270 -1.115003 -1.313376 1.116865 3.957660 -1.570957 -0.095478 -1.033363 -1.397916 -0.085425 0.870722 -0.127762 -4.384399 3.937161 0.000000 0.000000 0.000000 4.641564 2.937773 -1.975790 0.733468 2.794875 -2.126251 2.420592 -60.645374 -3.791807 0.000000 0.000000 0.000000 -1.510449 4.893808 4.662606 -0.649860 3.943305 -8.345518 -1.045298 -9.987348 -3.569266 0.000000 0.000000 0.000000 1.393895 -22.303111 -0.864428 0.345730 28.831635 3.284406 0.231343 -0.465398 0.129220 0.000000 0.000000 0.000000 2.799741 -16.607323 3.815896 3.172097 21.398083 -2.290037 3.464838 -1.364559 1.518964 0.000000 0.000000 0.000000 
-508.577881 -66.412178 1085.626953 -6.967454 6.066872 -1.232546 -1.261672 1.943281 4.254074 -1.609495 -0.313636 -1.023448 -1.450884 0.185402 0.859788 -0.167130 -4.445450 4.172071 0.000000 0.000000 0.000000 4.640483 1.998832 -1.685258 0.486017 1.606465 -4.058969 2.499739 -64.300937 -4.787286 0.000000 0.000000 0.000000 -2.124793 4.795664 4.349706 -0.561652 4.001298 -7.818593 -0.870023 -8.183946 -2.673306 0.000000 0.000000 0.000000 1.982819 -23.347897 -2.148979 1.046017 33.232392 4.974878 1.129335 -0.387268 0.478707 0.000000 0.000000 0.000000 2.574309 -14.997157 4.099101 3.284079 21.270443 -2.484068 3.571500 -0.871510 1.508519 0.000000 0.000000 0.000000 
-495.409576 -67.209969 1087.192993 -7.426145 5.450370 -1.290637 -1.202419 2.589165 4.350157 -1.665867 -0.512738 -0.964225 -1.538008 0.419773 0.819365 -0.189704 -4.588351 4.394625 0.000000 0.000000 0.000000 4.726033 1.005585 -1.249656 0.175346 0.406173 -5.915992 2.560441 -67.376696 -5.640412 0.000000 0.000000 0.000000 -2.655422 4.711251 4.165861 -0.477655 4.047806 -7.405556 -0.674196 -6.077254 -1.796439 0.000000 0.000000 0.000000 2.579059 -24.299465 -3.499951 1.816856 37.269627 6.584510 2.206724 -0.164794 0.878128 0.000000 0.000000 0.000000 2.371359 -13.282975 4.274505 3.374419 20.825762 -2.609275 3.654859 -0.414379 1.492574 0.000000 0.000000 0.000000 
-482.845490 -69.037216 1088.041992 -7.909139 5.306431 -1.256607 -1.219663 2.709616 4.132894 -1.736667 -0.573168 -0.873093 -1.637016 0.478396 0.766317 -0.189034 -4.877042 4.648883 0.000000 0.000000 0.000000 4.871644 0.097445 -0.946683 -0.054598 -0.611477 -7.126792 2.674436 -70.353726 -6.409439 0.000000 0.000000 0.000000 -2.761129 4.726319 4.577422 -0.428063 4.052483 -7.534961 -0.499228 -4.261298 -1.143213 0.000000 0.000000 0.000000 3.212602 -25.640748 -4.721868 2.691064 41.080837 7.841254 3.527449 0.298708 1.341439 0.000000 0.000000 0.000000 2.171863 -12.384481 4.314574 3.404076 20.931306 -2.592081 3.694998 -0.205644 1.480364 0.000000 0.000000 0.000000 
-470.098846 -71.766266 1088.385986 -8.459580 5.472060 -1.179551 -1.308909 2.417892 3.688268 -1.788931 -0.514409 -0.758816 -1.709371 0.426063 0.685350 -0.168298 -5.274990 4.929167 0.000000 0.000000 0.000000 5.106614 -0.766975 -0.709710 -0.272100 -1.481630 -7.917725 2.780855 -73.194124 -7.091003 0.000000 0.000000 0.000000 -2.614959 4.793522 5.391223 -0.377025 4.025036 -8.021627 -0.298372 -2.407391 -0.563753 0.000000 0.000000 0.000000 3.903713 -27.169980 -5.905074 3.697137 44.693712 8.939691 5.201860 0.881669 1.916802 0.000000 0.000000 0.000000 1.972471 -11.832795 4.272731 3.415426 21.128736 -2.470568 3.721147 -0.177687 1.479206 0.000000 0.000000 0.000000 
-456.536011 -74.847702 1088.604004 -9.012454 5.862383 -1.091070 -1.494707 1.832990 3.256124 -1.839548 -0.389773 -0.666670 -1.761599 0.298675 0.625040 -0.137294 -5.709680 5.228850 0.000000 0.000000 0.000000 5.349296 -1.532603 -0.383986 -0.367640 -2.205565 -8.540806 2.957904 -75.744885 -7.834516 0.000000 0.000000 0.000000 -2.391325 4.931646 6.171028 -0.295834 4.062846 -8.565212 -0.067719 -0.559580 -0.069074 0.000000 0.000000 0.000000 4.229592 -28.860997 -6.933976 4.375073 47.889028 9.363309 6.173999 1.262119 2.241625 0.000000 0.000000 0.000000 1.761514 -11.423784 4.232536 3.405670 21.221521 -2.396606 3.711983 -0.107321 1.460432 0.000000 0.000000 0.000000 
